<svg width="227" height="185" viewBox="0 0 227 185" fill="none" xmlns="http://www.w3.org/2000/svg">
<g clip-path="url(#clip0_43_67)">
<path d="M195.63 17.0109L5.42358 66.5286L10.4616 81.9791L200.668 32.4613L195.63 17.0109Z" fill="#3F3D56"/>
<path d="M28.1482 137.498L0.113304 51.5218C-0.0945386 50.8844 -0.0104722 50.1993 0.346997 49.6173C0.704466 49.0352 1.30606 48.6039 2.01944 48.4182L187.615 0.100775C188.328 -0.0843147 189.094 -0.00894433 189.746 0.31035C190.397 0.629645 190.88 1.16677 191.088 1.80383L215.925 77.9728L215.156 78.1729L190.32 2.00395C190.17 1.54909 189.825 1.16565 189.36 0.937614C188.895 0.709581 188.348 0.655552 187.838 0.787371L2.24335 49.1048C1.73379 49.2374 1.30408 49.5455 1.04875 49.9613C0.793412 50.377 0.733365 50.8664 0.881817 51.3217L28.9167 137.298L28.1482 137.498Z" fill="#3F3D56"/>
<path d="M174.846 78.3265C174.283 78.326 173.736 78.1625 173.285 77.8606C172.835 77.5587 172.506 77.1346 172.348 76.6517L167.645 62.2313C167.453 61.6395 167.532 61.0037 167.863 60.4634C168.195 59.9231 168.753 59.5225 169.415 59.3494L185.554 55.1479C186.216 54.9762 186.928 55.0463 187.533 55.3428C188.137 55.6394 188.586 56.1381 188.779 56.7296L193.481 71.15C193.674 71.7419 193.595 72.3777 193.263 72.9179C192.932 73.4582 192.374 73.8588 191.712 74.0319L175.573 78.2334C175.337 78.2951 175.092 78.3264 174.846 78.3265Z" fill="#BC7AF9"/>
<path d="M27.7147 51.7875C27.6664 51.6394 27.6089 51.4937 27.5425 51.3512C27.0913 50.3726 26.2513 49.5776 25.1838 49.1188C24.1163 48.66 22.8968 48.5699 21.7595 48.8657C20.6222 49.1616 19.6474 49.8226 19.0223 50.7217C18.3973 51.6207 18.1662 52.6945 18.3734 53.7366C18.4025 53.8886 18.4412 54.0391 18.4894 54.1872C18.7817 55.0786 19.3893 55.8614 20.2211 56.4184C21.053 56.9754 22.0645 57.2766 23.104 57.277C23.5579 57.2779 24.0095 57.2201 24.4448 57.1053C25.6667 56.7863 26.6971 56.0473 27.3101 55.0505C27.9231 54.0536 28.0686 52.8801 27.7147 51.7875ZM24.2207 56.4187C23.2017 56.683 22.107 56.5754 21.1767 56.1195C20.2463 55.6636 19.5563 54.8967 19.2579 53.9869C19.211 53.8387 19.1735 53.6883 19.1457 53.5363C18.9956 52.6777 19.2006 51.7996 19.7224 51.0663C20.2442 50.333 21.0471 49.7946 21.981 49.5518C22.9148 49.309 23.9156 49.3784 24.7963 49.7471C25.677 50.1159 26.3772 50.7586 26.7661 51.5551C26.8386 51.6949 26.8988 51.8396 26.9463 51.9878C27.2416 52.8983 27.1205 53.8764 26.6095 54.7071C26.0984 55.5379 25.2393 56.1535 24.2207 56.4187Z" fill="#BC7AF9"/>
<path d="M15.935 54.8523C15.6788 54.0664 15.7034 53.2286 16.0054 52.4557C16.3073 51.6828 16.8714 51.0133 17.6193 50.5405C16.9186 50.51 16.22 50.6295 15.5815 50.8891C14.943 51.1487 14.3832 51.5409 13.9487 52.033C13.5142 52.5251 13.2176 53.1028 13.0835 53.7181C12.9495 54.3333 12.982 54.9683 13.1782 55.57C13.3744 56.1718 13.7287 56.723 14.2116 57.1776C14.6945 57.6323 15.292 57.9772 15.9543 58.1838C16.6166 58.3903 17.3246 58.4524 18.0192 58.365C18.7138 58.2775 19.375 58.0431 19.9477 57.6811C19.0326 57.6411 18.1543 57.3472 17.435 56.8401C16.7157 56.3331 16.1914 55.6382 15.935 54.8523Z" fill="#BC7AF9"/>
<path d="M140.352 72.576C140.267 72.3023 140.122 72.0463 139.926 71.8227C139.73 71.599 139.487 71.4121 139.21 71.2726C138.933 71.1331 138.628 71.0437 138.312 71.0097C137.997 70.9756 137.677 70.9974 137.37 71.074L110.799 77.715L107.937 78.4302H125.908L128.769 77.715L138.675 75.2402C139.293 75.0852 139.816 74.7176 140.13 74.2181C140.445 73.7186 140.524 73.128 140.352 72.576Z" fill="#CCCCCC"/>
<path d="M121.553 67.6158C121.38 67.0638 120.969 66.5959 120.41 66.3149C119.85 66.0339 119.189 65.9629 118.571 66.1174L78.7004 76.0807C78.1432 76.2217 77.6608 76.5359 77.3401 76.9667C77.0194 77.3976 76.8815 77.9166 76.9513 78.4302H87.2733L90.1388 77.715L119.876 70.2836C120.494 70.1281 121.018 69.7599 121.332 69.2597C121.647 68.7595 121.726 68.1683 121.553 67.6158Z" fill="#CCCCCC"/>
<path d="M224.198 77.7141H30.8859C30.1431 77.7149 29.431 77.9789 28.9057 78.4482C28.3805 78.9175 28.0851 79.5538 28.0842 80.2175V182.497C28.085 183.16 28.3805 183.797 28.9057 184.266C29.4309 184.735 30.1431 184.999 30.8859 185H224.198C224.941 184.999 225.653 184.735 226.178 184.266C226.704 183.797 226.999 183.16 227 182.497V80.2175C226.999 79.5538 226.704 78.9175 226.178 78.4482C225.653 77.9789 224.941 77.7149 224.198 77.7141ZM226.199 182.497C226.199 182.971 225.988 183.426 225.613 183.761C225.238 184.096 224.729 184.285 224.198 184.285H30.8859C30.3552 184.285 29.8463 184.096 29.471 183.761C29.0958 183.426 28.8849 182.971 28.8847 182.497V80.2175C28.8849 79.7433 29.0958 79.2886 29.4711 78.9533C29.8463 78.618 30.3552 78.4296 30.8859 78.4294H224.198C224.729 78.4296 225.238 78.618 225.613 78.9533C225.988 79.2886 226.199 79.7433 226.199 80.2175V182.497Z" fill="#3F3D56"/>
<path d="M49.6954 91.6621C48.7455 91.6621 47.8169 91.4104 47.0271 90.9389C46.2373 90.4673 45.6217 89.7971 45.2582 89.0129C44.8947 88.2288 44.7995 87.3659 44.9849 86.5335C45.1702 85.701 45.6276 84.9363 46.2993 84.3362C46.971 83.736 47.8267 83.3273 48.7584 83.1617C49.69 82.9961 50.6557 83.0811 51.5333 83.4059C52.4109 83.7307 53.161 84.2808 53.6887 84.9865C54.2165 85.6922 54.4982 86.5219 54.4982 87.3707C54.4967 88.5084 53.9902 89.5992 53.0898 90.4037C52.1895 91.2083 50.9687 91.6608 49.6954 91.6621ZM49.6954 83.7945C48.9038 83.7945 48.13 84.0042 47.4718 84.3972C46.8136 84.7901 46.3006 85.3487 45.9977 86.0021C45.6948 86.6556 45.6155 87.3746 45.77 88.0684C45.9244 88.7621 46.3056 89.3993 46.8653 89.8994C47.425 90.3996 48.1382 90.7402 48.9146 90.8782C49.6909 91.0161 50.4957 90.9453 51.227 90.6746C51.9583 90.404 52.5834 89.9456 53.0232 89.3575C53.463 88.7694 53.6977 88.078 53.6977 87.3707C53.6965 86.4225 53.2744 85.5135 52.5241 84.8431C51.7738 84.1727 50.7565 83.7955 49.6954 83.7945Z" fill="#BC7AF9"/>
<path d="M42.2303 87.3707C42.2305 86.5521 42.5163 85.7539 43.0482 85.0873C43.58 84.4208 44.3312 83.919 45.1972 83.652C44.5341 83.4475 43.8259 83.3877 43.1316 83.4773C42.4374 83.567 41.7771 83.8036 41.2059 84.1674C40.6347 84.5313 40.1691 85.0118 39.8478 85.569C39.5265 86.1262 39.3589 86.7439 39.3589 87.3707C39.3589 87.9975 39.5265 88.6152 39.8478 89.1724C40.1691 89.7296 40.6347 90.2101 41.2059 90.5739C41.7771 90.9378 42.4374 91.1744 43.1316 91.264C43.8259 91.3537 44.5341 91.2938 45.1972 91.0894C44.3312 90.8224 43.58 90.3206 43.0482 89.654C42.5163 88.9875 42.2305 88.1893 42.2303 87.3707Z" fill="#BC7AF9"/>
<path d="M69.1641 138.073C68.2091 138.072 67.2935 137.733 66.6182 137.13C65.943 136.526 65.5631 135.708 65.562 134.855V125.199C65.562 124.345 65.9415 123.527 66.617 122.923C67.2926 122.32 68.2088 121.98 69.1641 121.98C70.1194 121.98 71.0356 122.32 71.7112 122.923C72.3867 123.527 72.7662 124.345 72.7662 125.199V134.855C72.7651 135.708 72.3852 136.526 71.71 137.129C71.0347 137.733 70.1191 138.072 69.1641 138.073Z" fill="#BC7AF9"/>
<path d="M78.7698 138.073C77.8148 138.072 76.8992 137.733 76.224 137.13C75.5487 136.526 75.1688 135.708 75.1677 134.855V125.199C75.1677 124.345 75.5472 123.527 76.2227 122.923C76.8983 122.32 77.8145 121.98 78.7698 121.98C79.7251 121.98 80.6413 122.32 81.3169 122.923C81.9924 123.527 82.3719 124.345 82.3719 125.199V134.855C82.3708 135.708 81.991 136.526 81.3157 137.129C80.6404 137.733 79.7248 138.072 78.7698 138.073Z" fill="#BC7AF9"/>
<path d="M88.3753 138.073C87.4203 138.072 86.5047 137.733 85.8294 137.13C85.1542 136.526 84.7743 135.708 84.7732 134.855V125.199C84.7732 124.345 85.1527 123.527 85.8282 122.923C86.5037 122.32 87.42 121.98 88.3753 121.98C89.3306 121.98 90.2468 122.32 90.9223 122.923C91.5979 123.527 91.9774 124.345 91.9774 125.199V134.855C91.9763 135.708 91.5964 136.526 90.9211 137.129C90.2459 137.733 89.3303 138.072 88.3753 138.073Z" fill="#BC7AF9"/>
<path d="M103.184 138.073C102.229 138.072 101.313 137.733 100.638 137.13C99.9628 136.526 99.5829 135.708 99.5818 134.855V125.199C99.5818 124.345 99.9613 123.527 100.637 122.923C101.312 122.32 102.229 121.98 103.184 121.98C104.139 121.98 105.055 122.32 105.731 122.923C106.406 123.527 106.786 124.345 106.786 125.199V134.855C106.785 135.708 106.405 136.526 105.73 137.129C105.054 137.733 104.139 138.072 103.184 138.073Z" fill="#BC7AF9"/>
<path d="M112.79 138.073C111.835 138.072 110.919 137.733 110.244 137.13C109.568 136.526 109.189 135.708 109.188 134.855V125.199C109.188 124.345 109.567 123.527 110.243 122.923C110.918 122.32 111.834 121.98 112.79 121.98C113.745 121.98 114.661 122.32 115.337 122.923C116.012 123.527 116.392 124.345 116.392 125.199V134.855C116.391 135.708 116.011 136.526 115.335 137.129C114.66 137.733 113.745 138.072 112.79 138.073Z" fill="#BC7AF9"/>
<path d="M122.395 138.073C121.44 138.072 120.525 137.733 119.849 137.13C119.174 136.526 118.794 135.708 118.793 134.855V125.199C118.793 124.345 119.172 123.527 119.848 122.923C120.524 122.32 121.44 121.98 122.395 121.98C123.35 121.98 124.267 122.32 124.942 122.923C125.618 123.527 125.997 124.345 125.997 125.199V134.855C125.996 135.708 125.616 136.526 124.941 137.129C124.266 137.733 123.35 138.072 122.395 138.073Z" fill="#BC7AF9"/>
<path d="M137.204 138.073C136.249 138.072 135.333 137.733 134.658 137.13C133.983 136.526 133.603 135.708 133.602 134.855V125.199C133.602 124.345 133.981 123.527 134.657 122.923C135.332 122.32 136.248 121.98 137.204 121.98C138.159 121.98 139.075 122.32 139.751 122.923C140.426 123.527 140.806 124.345 140.806 125.199V134.855C140.805 135.708 140.425 136.526 139.75 137.129C139.074 137.733 138.159 138.072 137.204 138.073Z" fill="#BC7AF9"/>
<path d="M146.809 138.073C145.854 138.072 144.939 137.733 144.264 137.13C143.588 136.526 143.208 135.708 143.207 134.855V125.199C143.207 124.345 143.587 123.527 144.262 122.923C144.938 122.32 145.854 121.98 146.809 121.98C147.765 121.98 148.681 122.32 149.356 122.923C150.032 123.527 150.411 124.345 150.411 125.199V134.855C150.41 135.708 150.031 136.526 149.355 137.129C148.68 137.733 147.764 138.072 146.809 138.073Z" fill="#BC7AF9"/>
<path d="M156.415 138.073C155.46 138.072 154.544 137.733 153.869 137.13C153.194 136.526 152.814 135.708 152.813 134.855V125.199C152.813 124.345 153.192 123.527 153.868 122.923C154.543 122.32 155.46 121.98 156.415 121.98C157.37 121.98 158.286 122.32 158.962 122.923C159.637 123.527 160.017 124.345 160.017 125.199V134.855C160.016 135.708 159.636 136.526 158.961 137.129C158.285 137.733 157.37 138.072 156.415 138.073Z" fill="#BC7AF9"/>
<path d="M171.223 138.073C170.268 138.072 169.353 137.733 168.678 137.13C168.002 136.526 167.622 135.708 167.621 134.855V125.199C167.621 124.345 168.001 123.527 168.676 122.923C169.352 122.32 170.268 121.98 171.223 121.98C172.179 121.98 173.095 122.32 173.77 122.923C174.446 123.527 174.826 124.345 174.826 125.199V134.855C174.824 135.708 174.445 136.526 173.769 137.129C173.094 137.733 172.178 138.072 171.223 138.073Z" fill="#BC7AF9"/>
<path d="M180.829 138.073C179.874 138.072 178.959 137.733 178.283 137.13C177.608 136.526 177.228 135.708 177.227 134.855V125.199C177.227 124.345 177.607 123.527 178.282 122.923C178.958 122.32 179.874 121.98 180.829 121.98C181.784 121.98 182.701 122.32 183.376 122.923C184.052 123.527 184.431 124.345 184.431 125.199V134.855C184.43 135.708 184.05 136.526 183.375 137.129C182.7 137.733 181.784 138.072 180.829 138.073Z" fill="#BC7AF9"/>
<path d="M190.435 138.073C189.48 138.072 188.564 137.733 187.889 137.13C187.213 136.526 186.834 135.708 186.833 134.855V125.199C186.833 124.345 187.212 123.527 187.888 122.923C188.563 122.32 189.479 121.98 190.435 121.98C191.39 121.98 192.306 122.32 192.982 122.923C193.657 123.527 194.037 124.345 194.037 125.199V134.855C194.036 135.708 193.656 136.526 192.98 137.129C192.305 137.733 191.39 138.072 190.435 138.073Z" fill="#BC7AF9"/>
<path d="M93.5857 173.895H41.7795C41.1376 173.895 40.5219 173.667 40.068 173.261C39.6141 172.856 39.3591 172.306 39.3591 171.732C39.3591 171.159 39.6141 170.609 40.068 170.203C40.5219 169.797 41.1376 169.57 41.7795 169.57H93.5857C94.2276 169.57 94.8432 169.797 95.2971 170.203C95.7511 170.609 96.006 171.159 96.006 171.732C96.006 172.306 95.7511 172.856 95.2971 173.261C94.8432 173.667 94.2276 173.895 93.5857 173.895Z" fill="#E6E6E6"/>
<path d="M76.976 164.597H58.3891C57.7472 164.597 57.1316 164.369 56.6777 163.963C56.2238 163.558 55.9688 163.008 55.9688 162.434C55.9688 161.861 56.2238 161.311 56.6777 160.905C57.1316 160.499 57.7472 160.271 58.3891 160.271H76.976C77.6179 160.271 78.2336 160.499 78.6875 160.905C79.1414 161.311 79.3964 161.861 79.3964 162.434C79.3964 163.008 79.1414 163.558 78.6875 163.963C78.2336 164.369 77.6179 164.597 76.976 164.597Z" fill="#E6E6E6"/>
<path d="M226.055 99.0927H28.7407V99.808H226.055V99.0927Z" fill="#3F3D56"/>
</g>
<defs>
<clipPath id="clip0_43_67">
<rect width="227" height="185" fill="white"/>
</clipPath>
</defs>
</svg>
