<svg width="235" height="142" viewBox="0 0 235 142" fill="none" xmlns="http://www.w3.org/2000/svg">
<g clip-path="url(#clip0_34_81)">
<path d="M212.793 141.342H162.965V140.095C162.965 139.012 163.492 137.973 164.431 137.208C165.37 136.442 166.643 136.012 167.971 136.012H207.787C209.115 136.012 210.388 136.442 211.327 137.208C212.266 137.973 212.793 139.012 212.793 140.095V141.342Z" fill="#E6E6E6"/>
<path d="M186.713 136.261L188.228 135.763C172.373 103.661 173.901 63.1614 187.303 28.4201C188.895 24.3949 189.01 20.0778 187.633 16C186.257 11.9222 183.449 8.26152 179.555 5.46843C171.776 -0.194299 161.051 -1.57379 151.565 1.86794C142.2 5.26574 140.91 11.1842 140.91 17.0739H142.543C142.543 10.7869 144.191 6.00217 152.229 3.08556C161.12 -0.139965 171.174 1.15379 178.467 6.46287C182.125 9.08618 184.762 12.5244 186.055 16.3544C187.348 20.1844 187.24 24.2393 185.745 28.02C172.188 63.1624 170.75 103.94 186.713 136.261Z" fill="#E6E6E6"/>
<path d="M142.135 36.7303C145.293 36.7303 147.853 34.642 147.853 32.066C147.853 29.49 145.293 27.4018 142.135 27.4018C138.977 27.4018 136.417 29.49 136.417 32.066C136.417 34.642 138.977 36.7303 142.135 36.7303Z" fill="#E6E6E6"/>
<path d="M133.329 40.1971V31.3595H135.013V40.1971C135.497 40.3566 135.897 40.6482 136.145 41.0219C136.394 41.3956 136.476 41.8283 136.376 42.2456C136.276 42.663 136.002 43.0392 135.6 43.3096C135.197 43.58 134.692 43.7279 134.171 43.7279C133.65 43.7279 133.145 43.58 132.743 43.3096C132.34 43.0392 132.066 42.663 131.966 42.2456C131.867 41.8283 131.948 41.3956 132.197 41.0219C132.445 40.6482 132.846 40.3566 133.329 40.1971Z" fill="#E6E6E6"/>
<path d="M125.185 24.5699C125.188 22.5383 126.179 20.5906 127.94 19.1541C129.701 17.7176 132.089 16.9095 134.579 16.9072H150.099C152.591 16.9072 154.98 17.7145 156.742 19.1516C158.503 20.5886 159.493 22.5376 159.493 24.5699C159.493 26.6022 158.503 28.5512 156.742 29.9882C154.98 31.4252 152.591 32.2326 150.099 32.2326H134.579C132.089 32.2303 129.701 31.4222 127.94 29.9857C126.179 28.5491 125.188 26.6015 125.185 24.5699Z" fill="#BC7AF9"/>
<path d="M103.318 72.022C104.876 55.7596 112.844 48.0114 107.742 43.1524C102.855 38.4981 89.0902 39.4595 80.25 43.9257C56.4062 55.972 47.6707 103.984 78.354 127.441C107.511 149.732 162.769 142.593 175.05 124.348C177.915 120.091 180.191 112.629 175.998 108.109C165.586 96.8883 127.732 117.212 110.902 104.5C100.928 96.9669 102.463 80.9467 103.318 72.022Z" fill="#3F3D56"/>
<path d="M121.544 63.9427C120.965 64.16 120.513 64.5531 120.284 65.0383C120.054 65.5235 120.066 66.0625 120.317 66.5407C120.37 66.6372 120.432 66.73 120.504 66.8181L115.386 72.3923L117.94 75.5057L123.938 67.2516C124.363 66.9812 124.667 66.6037 124.801 66.1779C124.935 65.7522 124.893 65.3021 124.681 64.898C124.557 64.669 124.38 64.462 124.158 64.289C123.937 64.116 123.676 63.9802 123.39 63.8895C123.104 63.7988 122.799 63.7549 122.492 63.7603C122.186 63.7657 121.884 63.8203 121.603 63.921C121.583 63.928 121.564 63.9353 121.544 63.9427Z" fill="#FFB6B6"/>
<path d="M121.54 73.5534C121.875 73.7957 120.946 74.0947 119.964 73.623C119.682 73.4864 119.562 73.4296 119.531 73.4657C119.452 73.5559 119.913 74.221 119.79 75.698C119.714 76.5795 117.919 78.237 115.881 79.8531C113.125 82.039 109.921 84.1475 109.921 84.1475L108.796 83.4128L96.9999 75.698L95.0092 73.4503C95.1914 72.5626 95.4652 71.6892 95.8276 70.8391C96.3268 69.6625 96.92 68.5138 97.6035 67.4005C97.9701 66.7948 98.3461 66.2174 98.7064 65.6864L105.026 71.3675L110.322 76.1259C110.322 76.1259 111.865 74.0998 113.059 73.5482C113.211 73.4689 113.385 73.4203 113.565 73.4065C114.772 73.36 114.844 72.8239 113.445 71.6562C112.045 70.4886 113.811 71.5789 115.056 71.2644C116.301 70.95 115.056 71.2644 115.318 70.4782C115.581 69.6921 119.072 68.1146 119.072 68.1146L119.218 68.2202L121.856 70.12L122.612 70.6639C122.612 70.6639 121.787 72.5094 121.559 72.8987C121.332 73.2879 121.209 73.3085 121.54 73.5534Z" fill="#BC7AF9"/>
<path d="M191.097 109.361L191.226 106.518L177.843 104.76L177.653 108.956L191.097 109.361Z" fill="#FFB6B6"/>
<path d="M188.668 110.217L188.541 105.665L190.927 105.736L194.778 101.528C194.968 101.32 195.235 101.167 195.539 101.092C195.844 101.016 196.169 101.022 196.469 101.108C196.769 101.195 197.027 101.357 197.206 101.571C197.385 101.786 197.475 102.041 197.464 102.3L197.219 107.708L194.817 108.569L197.16 109.004L197.068 111.043L188.668 110.217Z" fill="#2F2E41"/>
<path d="M115.776 110.468L158.165 111.345C158.165 111.345 176.47 112.207 180.765 109.928L185.294 109.462L185.539 104.035C185.539 104.035 182.77 104.052 181.177 103.446C179.585 102.841 180.692 102.101 179.174 102.829C177.655 103.557 177.816 103.645 176.642 103.31C175.468 102.975 121.643 96.283 121.643 96.283L115.776 110.468Z" fill="#2F2E41"/>
<path d="M171.633 108.113L174.098 106.1L165.753 97.3866L162.115 100.358L171.633 108.113Z" fill="#FFB6B6"/>
<path d="M169.139 106.362L172.841 102.954L174.53 104.33L180.863 103.382C181.176 103.335 181.499 103.371 181.785 103.484C182.071 103.598 182.305 103.783 182.453 104.013C182.6 104.242 182.655 104.504 182.607 104.761C182.559 105.017 182.412 105.255 182.187 105.438L177.499 109.267L175.02 108.565L176.376 110.184L174.608 111.628L169.139 106.362Z" fill="#2F2E41"/>
<path d="M99.0521 91.531L99.4735 99.5216C99.9696 108.928 112.669 114.622 122.517 109.71C122.699 109.62 122.881 109.526 123.063 109.429C123.063 109.429 126.797 108.611 126.683 107.316C126.57 106.021 127.482 105.39 128.289 105.744C129.096 106.097 139.664 93.8632 139.664 93.8632C139.664 93.8632 161.62 102.797 166.464 104.9C166.464 104.9 171.018 99.0918 170.688 99.1527C170.357 99.2136 143.525 83.8944 143.525 83.8944C143.525 83.8944 139.154 80.2857 133.732 82.6684C133.619 83.0184 133.715 83.0306 133.715 83.0306L115.803 94.9363L113.272 91.0155L99.0521 91.531Z" fill="#2F2E41"/>
<path d="M115.941 81.5415C115.907 81.9106 115.842 82.2775 115.748 82.6396C115.619 83.1637 115.411 83.6728 115.129 84.1552C115.129 84.1552 115.129 84.694 113.865 86.4983C112.601 88.3027 114.181 87.5294 115.129 88.8698C116.077 90.2076 115.129 89.5915 114.077 90.4524C113.774 90.703 113.558 91.0151 113.453 91.3565C113.348 91.6978 113.357 92.0558 113.479 92.3934C113.479 92.3934 99.904 92.4011 97.376 91.6278C94.848 90.8545 94.2729 86.4983 96.5386 86.0679C98.8011 85.6374 95.8529 85.2095 94.5225 84.2171C93.1922 83.2247 95.8529 81.6008 95.8529 81.6008C95.8529 81.6008 94.7564 80.0568 94.848 74.8732C94.8609 74.3964 94.9148 73.9209 95.0092 73.4503C95.1914 72.5627 95.4652 71.6892 95.8276 70.8391C96.3267 69.6625 96.92 68.5138 97.6035 67.4006C97.97 66.7948 98.3461 66.2174 98.7063 65.6864C98.7632 65.604 98.8169 65.524 98.8738 65.4441C99.5595 64.4543 100.185 63.6449 100.599 63.1268C100.918 62.7247 101.111 62.4979 101.111 62.4979L103.412 59.2346L111.09 62.1705L110.654 66.9727L111.978 70.5943L112.588 72.262L113.059 73.5482L113.786 75.5408C113.786 75.5408 113.587 75.5485 113.824 75.814C114.915 76.9977 115.623 78.387 115.881 79.8531C115.972 80.4128 115.992 80.9785 115.941 81.5415Z" fill="#BC7AF9"/>
<path d="M138.116 82.059L137.972 82.021L119.593 77.1934L126.366 59.0695C126.501 58.7086 126.734 58.3774 127.049 58.1008C127.363 57.8243 127.751 57.6095 128.182 57.4729C128.613 57.3362 129.077 57.2811 129.538 57.3118C129.999 57.3425 130.445 57.4582 130.843 57.6501L142.588 63.3104C143.518 63.7579 144.225 64.4577 144.586 65.2875C144.948 66.1173 144.94 67.0243 144.565 67.8499L138.116 82.059Z" fill="#2F2E41"/>
<path d="M138.191 83.2112L119.664 78.3447L126.437 60.2208C126.572 59.8599 126.805 59.5287 127.12 59.2521C127.434 58.9756 127.822 58.7608 128.253 58.6242C128.684 58.4875 129.148 58.4324 129.609 58.4631C130.07 58.4939 130.516 58.6095 130.914 58.8014L143.22 63.813C145.068 64.7037 145.025 67.0091 144.167 68.9007L138.191 83.2112Z" fill="#BC7AF9"/>
<path d="M136.336 84.523C135.909 84.7193 135.437 84.8411 134.95 84.8807C134.462 84.9202 133.97 84.8767 133.505 84.7527L121.663 81.642C120.754 81.3999 119.998 80.8776 119.555 80.1866C119.112 79.4957 119.018 78.6909 119.293 77.9441L125.23 62.0563C125.348 61.7389 125.544 61.444 125.804 61.1889C126.064 60.9338 126.384 60.7237 126.745 60.5708C127.106 60.418 127.501 60.3254 127.906 60.2987C128.312 60.2719 128.72 60.3115 129.106 60.415L141.378 63.7018C141.963 63.8584 142.503 64.109 142.967 64.4387C143.431 64.7685 143.809 65.1708 144.08 65.6218C144.35 66.0729 144.507 66.5635 144.54 67.0647C144.574 67.566 144.485 68.0677 144.277 68.5402L137.929 82.9759C137.644 83.6314 137.078 84.1808 136.336 84.523Z" fill="#3F3D56"/>
<path d="M110.656 59.2903C115.341 59.2903 119.138 56.1927 119.138 52.3717C119.138 48.5506 115.341 45.4531 110.656 45.4531C105.972 45.4531 102.175 48.5506 102.175 52.3717C102.175 56.1927 105.972 59.2903 110.656 59.2903Z" fill="#FFB6B6"/>
<path d="M81.9751 59.3945C82.7535 60.6252 84.0297 61.5984 85.5874 62.1491C86.209 62.3801 86.8626 62.5488 87.534 62.6516C87.7238 62.0377 88.0276 61.4511 88.4348 60.9122C88.2991 61.5197 88.2991 62.1421 88.4348 62.7496C89.4576 62.8178 90.4867 62.7136 91.458 62.4434C92.4119 62.1788 93.2771 61.7365 93.985 61.1515C94.6928 60.5666 95.2238 59.8551 95.5357 59.0736C96.2114 57.2397 95.4837 55.281 95.4263 53.3667C95.3673 51.4523 96.4817 49.1625 98.8116 48.9256C100.586 48.7449 100.366 48.8852 101.641 49.9077C99.8581 51.5237 104.206 58.6809 106.539 58.3647C107.857 58.1859 108.828 57.3317 109.089 57.3613C110.425 60.0298 106.407 63.8143 109.593 65.0567L109.357 64.8015C107.689 62.5535 112.625 58.7568 110.957 56.5088C110.492 55.88 110.008 55.1427 110.296 54.4471C110.569 53.7857 111.952 53.5763 112.244 54.1783C111.769 52.7985 113.094 51.179 114.852 51.0382C116.415 50.9125 116.325 51.2757 117.814 51.6072C118.005 51.0837 118.279 50.583 118.63 50.1182C118.511 50.6485 118.497 51.1909 118.587 51.725C119.124 51.7773 119.667 51.6835 120.133 51.4581C121.508 50.7854 121.549 49.0489 120.604 47.9921C119.657 46.935 118.072 46.4131 116.542 46.0182C116.528 43.379 107.822 42.1155 106.221 44.5693C106.056 42.5825 103.264 41.2442 100.859 41.5817C98.4537 41.9192 96.5562 43.4923 95.3994 45.2457C94.2429 46.9977 93.6687 48.9595 92.8219 50.8257C91.9752 52.6919 90.7649 54.5528 88.7374 55.6601C86.7101 56.7659 83.6973 56.8664 82.0047 55.433C81.6186 56.045 81.4148 56.7226 81.4096 57.4109C81.4045 58.0992 81.5982 58.7787 81.9751 59.3945Z" fill="#2F2E41"/>
<path d="M90.678 91.033C90.8535 90.9185 91.0439 90.8202 91.2458 90.7397C94.4922 89.4217 104.588 86.0006 112.482 86.1409C127.671 86.411 147 100.085 142.502 109.267C139.079 116.254 122.061 120.229 109.638 117.05C92.2348 112.596 85.3656 94.4881 90.678 91.033Z" fill="#3F3D56"/>
<path d="M27.6231 141.369C22.66 140.605 18.2668 122.366 28.0315 113.383C31.3771 110.306 35.5502 108.966 41.1012 107.719C73.051 100.544 97.4197 107.383 100.694 109.052C103.962 110.718 109.69 135.817 102.365 139.37C98.2439 141.369 90.0754 142.368 86.0281 140.036C80.0729 136.604 90.0688 127.704 85.6197 121.712C80.5709 114.913 53.9848 112.623 40.6557 119.38C26.435 126.589 55.7675 145.7 27.6231 141.369Z" fill="#F2F2F2"/>
<path d="M60.8056 110.358H41.8448C37.1642 106.699 33.8175 103.173 36.4969 100.246C36.4969 99.4043 36.9067 98.5973 37.6361 98.0023C38.3655 97.4074 39.3548 97.0731 40.3863 97.0731H62.2641C63.2956 97.0731 64.2849 97.4074 65.0143 98.0023C65.7437 98.5973 66.1534 99.4043 66.1535 100.246C67.1736 103.581 65.3511 106.953 60.8056 110.358Z" fill="#CCCCCC"/>
<path d="M57.4003 93.0791C57.2204 93.0858 57.0423 93.0473 56.8902 92.9687C56.738 92.8901 56.6191 92.7753 56.5497 92.6398C56.4802 92.5042 56.4635 92.3546 56.5018 92.211C56.5401 92.0675 56.6315 91.937 56.7638 91.8373L56.8239 91.6421C56.816 91.6265 56.8081 91.6109 56.8 91.5953C56.6188 91.2461 56.3151 90.9483 55.9271 90.7395C55.5391 90.5306 55.0841 90.4199 54.6192 90.4214C54.1544 90.4228 53.7004 90.5362 53.3143 90.7474C52.9282 90.9586 52.6272 91.2582 52.4492 91.6084C51.7375 93.0065 50.8315 94.4069 50.6085 95.8851C50.5102 96.5385 50.5517 97.2008 50.731 97.8427C49.0596 94.8687 48.1917 91.6363 48.1861 88.3647C48.1858 87.5437 48.2417 86.7234 48.3536 85.9075C48.4461 85.2386 48.5744 84.5745 48.7386 83.9152C49.6344 80.3378 51.5578 76.9847 54.3507 74.1313C55.7025 73.5297 56.7957 72.6045 57.483 71.4804C57.732 71.0764 57.908 70.645 58.0055 70.1998C57.853 70.2161 57.4305 68.3218 57.5456 68.2055C57.333 67.9425 56.9527 67.8117 56.7206 67.555C55.5663 66.2785 53.976 66.5014 53.1458 68.2361C51.3723 68.9663 51.3551 70.1772 52.4433 71.3418C53.1357 72.0827 53.2308 73.0852 53.8383 73.8785C53.7758 73.9437 53.7108 74.0069 53.6483 74.0722C52.5058 75.2705 51.5101 76.5573 50.6754 77.914C50.8784 76.3941 50.6361 74.8565 49.9685 73.4278C49.2919 72.0964 48.0237 70.975 46.9068 69.8239C45.5653 68.4413 42.8145 69.0447 42.5782 70.7974C42.5759 70.8144 42.5736 70.8313 42.5715 70.8483C42.7373 70.9246 42.8997 71.0056 43.0586 71.0914C43.2582 71.2001 43.4129 71.3556 43.5023 71.5373C43.5918 71.719 43.6119 71.9185 43.56 72.1096C43.508 72.3008 43.3865 72.4747 43.2113 72.6086C43.0362 72.7425 42.8155 72.8301 42.5783 72.8599L42.554 72.863C42.6131 73.3507 42.7175 73.834 42.8665 74.3088C41.4337 78.8285 44.5269 80.4746 48.9436 80.5486C49.0411 80.5894 49.1361 80.6301 49.2336 80.6689C48.3949 82.6075 47.8689 84.6269 47.6687 86.6762C47.5553 87.8853 47.562 89.0998 47.6887 90.308L47.6812 90.2652C47.3611 88.9217 46.4826 87.7095 45.1938 86.8333C43.2796 85.5506 40.5753 85.0783 38.5103 84.0473C38.2908 83.9324 38.0356 83.871 37.7748 83.8705C37.514 83.87 37.2585 83.9303 37.0383 84.0444C36.8182 84.1585 36.6426 84.3215 36.5323 84.5143C36.422 84.7071 36.3816 84.9216 36.4159 85.1325C36.4187 85.1475 36.4215 85.1625 36.4243 85.1775C36.7322 85.2797 37.0319 85.3976 37.3218 85.5302C37.4877 85.6066 37.6501 85.6876 37.8089 85.7733C38.0085 85.8821 38.1632 86.0375 38.2526 86.2192C38.3421 86.4009 38.3622 86.6004 38.3103 86.7916C38.2583 86.9828 38.1368 87.1567 37.9617 87.2906C37.7865 87.4244 37.5658 87.512 37.3286 87.5419L37.3043 87.5449C37.2868 87.547 37.2718 87.549 37.2543 87.5511C37.7803 88.5755 38.5185 89.5184 39.4367 90.3386C40.3325 94.2841 44.1802 94.6584 48.2961 93.5095H48.2986C48.7502 95.1102 49.4045 96.6683 50.251 98.1587H57.2256C57.2506 98.0955 57.2731 98.0303 57.2956 97.967C56.65 98.0002 56.0019 97.9687 55.3657 97.8733C55.8832 97.3553 56.4006 96.8333 56.9181 96.3153C56.9296 96.3057 56.9405 96.2954 56.9506 96.2848C57.2131 96.0197 57.4781 95.7566 57.7405 95.4915L57.7407 95.4912C57.7547 94.6786 57.6401 93.8679 57.4003 93.0791Z" fill="#CCCCCC"/>
<path d="M81.1893 109.53C81.305 109.804 81.5244 110.042 81.8161 110.209C82.1078 110.376 82.4567 110.463 82.8127 110.457L89.7685 110.311C90.1272 110.306 90.474 110.205 90.757 110.026C91.0401 109.846 91.2442 109.596 91.3389 109.314L92.3232 100.728C92.6724 100.857 93.0526 100.921 93.4359 100.915C94.1085 100.901 94.7468 100.67 95.2104 100.272C95.6741 99.8744 95.9251 99.3428 95.9082 98.7942C95.8913 98.2456 95.6079 97.7249 95.1204 97.3467C94.6329 96.9685 93.9812 96.7638 93.3086 96.7775C93.1554 96.7771 93.0026 96.7901 92.8528 96.8162C92.6898 96.6724 92.4918 96.558 92.2713 96.4805C92.0509 96.4029 91.813 96.3638 91.573 96.3658L80.8734 96.5912C80.7847 96.5938 80.6963 96.6028 80.6095 96.6179C80.3748 96.6536 80.1523 96.7298 79.9568 96.8415C79.7613 96.9533 79.5975 97.0979 79.4762 97.2656C79.355 97.4333 79.2792 97.6202 79.254 97.8138C79.2288 98.0075 79.2547 98.2032 79.33 98.388L81.1893 109.53ZM92.5251 100.145L93.2255 98.0992C93.3052 97.8629 93.307 97.6136 93.2308 97.3765C93.2648 97.3764 93.2948 97.3633 93.3288 97.3632C93.809 97.3552 94.2735 97.5028 94.6204 97.7737C94.9674 98.0446 95.1686 98.4166 95.1798 98.8083C95.1911 99.2 95.0115 99.5793 94.6804 99.8632C94.3494 100.147 93.8939 100.312 93.4137 100.323C93.1033 100.33 92.796 100.269 92.5251 100.145Z" fill="#CCCCCC"/>
<path d="M80.6094 96.6179C80.8373 97.6811 83.4002 98.4285 86.4818 98.2986C89.3156 98.1921 91.6327 97.3804 92.0572 96.4185C91.9001 96.3806 91.7367 96.3628 91.5729 96.3658L80.8733 96.5912C80.7845 96.5938 80.6962 96.6028 80.6094 96.6179Z" fill="white"/>
<path d="M0.372516 141.771L234.627 141.85C234.726 141.85 234.821 141.818 234.891 141.761C234.961 141.704 235 141.626 235 141.546C235 141.465 234.961 141.388 234.891 141.331C234.821 141.274 234.726 141.242 234.627 141.242L0.372516 141.163C0.273718 141.163 0.178968 141.195 0.109107 141.252C0.0392465 141.309 0 141.387 0 141.467C0 141.548 0.0392465 141.625 0.109107 141.682C0.178968 141.739 0.273718 141.771 0.372516 141.771Z" fill="#CACACA"/>
<path d="M131.759 73.8599C131.122 73.8788 130.519 74.0998 130.079 74.4758C129.638 74.8518 129.395 75.3531 129.401 75.8731C129.404 75.9787 129.418 76.084 129.443 76.1878L122.091 79.7283L122.981 83.4034L132.409 77.6652C132.929 77.5489 133.387 77.2955 133.711 76.9446C134.036 76.5937 134.209 76.165 134.204 75.7254C134.198 75.4752 134.131 75.2285 134.009 74.9993C133.886 74.7701 133.709 74.5629 133.488 74.3895C133.266 74.2161 133.006 74.08 132.72 73.9888C132.434 73.8976 132.13 73.8532 131.823 73.8581C131.802 73.8585 131.78 73.859 131.759 73.8599Z" fill="#FFB6B6"/>
<path d="M125.736 82.3003C125.54 82.0854 125.455 81.9954 125.411 82.0201C125.295 82.0767 125.406 82.836 124.597 84.1594C123.457 86.0185 111.505 88.866 111.505 88.866L110.034 86.6685L103.561 77.0116L101.33 69.2713C101.252 69.0014 101.214 68.7249 101.217 68.4476C103.207 67.3058 105.319 66.314 107.528 65.4844C108.411 65.8929 109.084 66.547 109.424 67.3271L113.88 77.5172L115.658 81.5857C115.658 81.5857 118.794 79.7565 119.931 80.0922C121.067 80.4301 121.39 79.9564 120.647 78.4398C119.905 76.9233 121.019 78.4843 122.316 78.5836C123.616 78.6843 122.316 78.5836 122.93 77.94C123.544 77.2965 127.512 76.9344 127.512 76.9344L127.596 77.078L129.134 79.6582L129.574 80.3995C129.574 80.3995 127.944 81.8423 127.55 82.1299C127.155 82.4195 127.033 82.3995 127.227 82.7295C127.418 83.0579 126.419 83.043 125.736 82.3003Z" fill="#BC7AF9"/>
</g>
<defs>
<clipPath id="clip0_34_81">
<rect width="235" height="142" fill="white"/>
</clipPath>
</defs>
</svg>
