<svg width="38" height="20" viewBox="0 0 38 20" fill="none" xmlns="http://www.w3.org/2000/svg">
<path d="M5.95506 2.78092C6.20784 3.90525 5.6368 5.78253 1.47818 4.63836C1.45105 4.63986 1.42478 4.64061 1.39942 4.64057C11.5176 8.19818 9.4642 3.72093 7.13483 1L36 8.5053L35.0757 8.82814L5.95506 19L1 6.27915L35.0757 8.82814L36 8.5053L7.13483 1C9.4642 3.72093 11.5176 8.19818 1.39942 4.64057C1.21011 4.64034 1.0711 4.5968 1 4.49823C1.94382 2.10671 4.69663 2.35689 5.95506 2.78092Z" fill="#B345F9"/>
<path d="M1 4.49823C5.59326 5.92297 6.21723 3.947 5.95506 2.78092M1 4.49823C1.44045 5.10884 4.48689 3.60777 5.95506 2.78092M1 4.49823C1.94382 2.10671 4.69663 2.35689 5.95506 2.78092M1 4.49823C11.5708 8.31449 9.49438 3.75618 7.13483 0.999999L36 8.5053L35.0757 8.82814M35.0757 8.82814L5.95506 19L1 6.27915L35.0757 8.82814Z" stroke="#B345F9"/>
</svg>
