<svg width="246" height="273" viewBox="0 0 246 273" fill="none" xmlns="http://www.w3.org/2000/svg">
<g clip-path="url(#clip0_44_104)">
<path d="M158.155 202.121C158.707 202.409 159.336 202.525 159.958 202.452C160.579 202.379 161.163 202.121 161.629 201.713C162.096 201.304 162.423 200.766 162.566 200.17C162.709 199.574 162.661 198.95 162.429 198.381C162.491 198.079 162.536 197.861 162.598 197.559C163.792 196.469 165.292 195.752 166.906 195.501C168.519 195.25 170.173 195.476 171.654 196.15C173.135 196.824 174.377 197.915 175.22 199.283C176.063 200.651 176.469 202.235 176.386 203.83C176.008 212.828 176.463 222.538 170.347 229.792C198.261 207.487 210.989 169.489 202.464 135.314C198.282 129.614 196.33 122.043 198.206 115.182C200.56 117.42 205.149 116.819 204.448 112.943C204.071 111.412 203.682 109.885 203.306 108.353C219.384 102.218 223.582 125.595 204.536 135.112C206.081 141.61 206.928 148.247 207.061 154.917C209.211 148.903 212.79 143.474 217.505 139.077C222.069 135.058 228.104 132.696 233.719 129.999C240.551 126.71 248.134 133.231 245.444 140.193C240.896 139.624 237.678 144.939 241.805 147.796C234.556 159.7 220.656 167.267 206.534 167.387C205.106 180.97 200.733 194.1 193.708 205.901C202.729 192.487 220.188 196.349 233.986 195.778C234.901 195.665 235.831 195.815 236.66 196.21C237.49 196.605 238.184 197.227 238.658 198.001C239.133 198.775 239.366 199.667 239.331 200.569C239.295 201.47 238.992 202.342 238.458 203.078C236.643 202.974 234.822 203.046 233.021 203.294C232.175 203.417 231.387 203.793 230.767 204.37C230.148 204.948 229.726 205.698 229.559 206.519C229.393 207.341 229.49 208.192 229.838 208.957C230.186 209.722 230.767 210.363 231.502 210.792C219.399 221.642 200.643 223.974 185.924 217.051C181.572 222.411 176.662 227.315 171.273 231.682L149.389 221.482C149.427 221.208 149.476 220.929 149.521 220.659C151.486 221.727 153.577 222.557 155.748 223.128C153.414 214.426 150.812 209.329 158.154 202.121H158.155Z" fill="#F2F2F2"/>
<path d="M119.485 181.535C119.085 182.005 118.547 182.345 117.943 182.506C117.339 182.668 116.7 182.644 116.11 182.438C115.521 182.232 115.01 181.854 114.648 181.355C114.285 180.856 114.089 180.26 114.084 179.648C113.91 179.39 113.785 179.206 113.611 178.949C112.084 178.38 110.418 178.269 108.827 178.632C107.236 178.994 105.792 179.813 104.68 180.984C103.568 182.154 102.839 183.623 102.586 185.201C102.333 186.779 102.568 188.396 103.26 189.842C107.081 198.036 110.406 207.196 118.868 211.658C84.4114 201.297 57.9658 170.801 52.6774 136.006C54.3528 129.185 53.2392 121.453 48.8551 115.79C47.5387 118.732 43.0569 119.867 42.2113 116.019C41.9689 114.462 41.7404 112.904 41.4979 111.347C24.2412 111.596 29.3711 134.793 50.6808 136.583C51.7563 143.171 53.5331 149.63 55.9822 155.856C51.6712 151.079 46.2621 147.372 40.1998 145.038C34.4225 143 27.9215 143.038 21.6815 142.612C14.0851 142.086 9.57811 150.922 14.7549 156.377C18.7475 154.172 23.7786 157.908 21.0582 162.076C32.3639 170.428 48.1555 172.308 61.2809 167.211C67.8435 179.264 76.958 189.811 88.017 198.149C74.4873 189.054 59.8078 199.07 46.8089 203.63C45.9175 203.863 45.1148 204.345 44.4987 205.016C43.8826 205.688 43.4796 206.52 43.3391 207.412C43.1985 208.304 43.3263 209.216 43.707 210.038C44.0877 210.86 44.7048 211.556 45.483 212.04C47.1238 211.274 48.8384 210.67 50.6015 210.235C51.4332 210.037 52.3073 210.094 53.1041 210.4C53.9009 210.706 54.5814 211.246 55.0522 211.945C55.5231 212.644 55.7613 213.469 55.7342 214.305C55.7071 215.142 55.4161 215.95 54.9009 216.619C70.2958 222.203 88.5651 217.445 99.5268 205.604C105.625 208.963 112.064 211.694 118.74 213.751L135.072 196.233C134.932 195.992 134.779 195.753 134.632 195.519C133.225 197.233 131.608 198.773 129.818 200.103C128.623 191.182 129.066 185.502 119.486 181.534L119.485 181.535Z" fill="#F2F2F2"/>
<path d="M123.689 107.51C124.312 107.448 124.9 107.201 125.374 106.802C125.849 106.402 126.186 105.87 126.34 105.276C126.495 104.683 126.459 104.058 126.238 103.485C126.017 102.913 125.621 102.42 125.105 102.075C124.984 101.79 124.897 101.585 124.776 101.3C125.146 99.7442 125.983 98.3316 127.179 97.2436C128.375 96.1555 129.877 95.4416 131.491 95.1933C133.105 94.945 134.758 95.1737 136.238 95.85C137.718 96.5263 138.958 97.6195 139.798 98.9893C144.615 106.665 150.529 114.477 149.588 123.834C160.043 90.0985 148.943 51.616 122.379 27.8932C115.657 25.4423 109.72 20.2207 107.365 13.5022C110.596 14.0773 114.062 11.0763 111.27 8.24144C110.085 7.17508 108.891 6.11971 107.705 5.05328C117.554 -8.80491 134.368 8.31214 123.985 26.5963C128.972 31.1477 133.459 36.1964 137.373 41.6602C135.728 35.4958 135.604 29.0377 137.011 22.8172C138.508 16.993 142.171 11.741 145.295 6.44184C149.091 -0.0135916 159.104 1.26584 160.84 8.51147C156.74 10.5187 157.1 16.686 162.155 16.8073C162.925 30.6417 155.701 44.5008 144.046 52.2998C150.605 64.3546 154.462 77.6381 155.358 91.265C155.199 75.211 171.895 68.8986 183.023 60.9019C183.718 60.3091 184.575 59.9271 185.489 59.8024C186.403 59.6777 187.334 59.8158 188.169 60.1999C189.004 60.5839 189.707 61.1972 190.191 61.965C190.676 62.7328 190.922 63.6219 190.898 64.5238C189.332 65.427 187.861 66.48 186.508 67.6674C185.875 68.2309 185.436 68.9721 185.25 69.7894C185.065 70.6066 185.143 71.46 185.473 72.2324C185.803 73.0047 186.369 73.6584 187.094 74.1037C187.819 74.5491 188.667 74.7643 189.522 74.7198C185.661 90.3255 171.421 102.487 155.254 104.764C154.698 111.587 153.418 118.334 151.435 124.898L127.452 128.361C127.327 128.113 127.209 127.855 127.092 127.606C129.332 127.422 131.541 126.97 133.67 126.261C126.77 120.309 121.703 117.496 123.688 107.51L123.689 107.51Z" fill="#F2F2F2"/>
<path d="M147.81 99.9904C136.891 99.9904 130.969 98.6858 128.901 95.9009C127.076 93.4437 128.299 90.2016 129.716 86.4477C130.734 83.7494 131.888 80.6913 131.888 77.6646C131.888 62.9434 139.522 55.479 154.577 55.479C162.067 55.479 170.11 59.3699 176.091 65.8872C181.529 71.8122 184.237 78.9033 183.523 85.3422C182.937 90.6229 180.423 94.0956 175.612 96.2717L175.331 96.3989L175.251 96.1061C174.835 94.5905 174.132 93.1647 173.178 91.9032C173.085 93.8835 172.575 95.8236 171.678 97.6017L171.627 97.7031L171.516 97.7342C166.071 99.2508 159.608 99.6617 154.587 99.85C152.143 99.9431 149.884 99.9899 147.81 99.9904Z" fill="#2F2E41"/>
<path d="M150.786 120.501C150.367 119.299 149.661 118.211 148.727 117.328C147.792 116.445 146.656 115.793 145.412 115.426C144.168 115.059 142.852 114.987 141.574 115.216C140.296 115.446 139.093 115.97 138.063 116.745L102.149 137.741L90.911 110.928C91.8604 109.566 92.3443 107.945 92.2933 106.298C92.2424 104.651 91.6591 103.061 90.6273 101.758C89.5955 100.455 88.1681 99.5045 86.5499 99.0435C84.9316 98.5826 83.2057 98.6346 81.6195 99.1921C80.0333 99.7496 78.6685 100.784 77.7207 102.147C76.7729 103.51 76.2909 105.131 76.3438 106.779C76.3966 108.426 76.9817 110.014 78.015 111.317C79.0483 112.619 80.4768 113.567 82.0956 114.027C82.7882 121.759 86.6377 156.318 100.029 155.061C111.285 154.005 139.239 135.802 147.922 129.49C149.311 128.481 150.336 127.067 150.851 125.452C151.366 123.837 151.343 122.103 150.786 120.501Z" fill="#FFB6B6"/>
<path d="M177.85 273H146.591L141.35 247.657L139.649 273H110.613C110.624 253.098 111.684 233.21 113.789 213.415L114.149 212.217L114.718 210.299L115.078 209.095L121.086 188.919L121.561 187.318H157.743C159.825 189.23 161.745 191.304 163.485 193.519C164.075 194.254 164.69 195.049 165.321 195.906C165.759 196.513 166.213 197.151 166.667 197.819C170.699 203.688 173.712 210.167 175.586 216.995V217C175.904 218.168 176.186 219.364 176.431 220.586V220.591C176.65 221.677 176.843 222.779 176.994 223.906C177.109 224.727 177.208 225.558 177.281 226.4C177.716 231.062 177.564 235.759 176.827 240.385L177.85 273Z" fill="#2F2E41"/>
<path d="M12.1183 41.2707C14.1483 40.5024 15.3508 38.7601 14.8041 37.3792C14.2575 35.9983 12.1687 35.5018 10.1387 36.2702C8.1087 37.0386 6.90622 38.7809 7.45287 40.1618C7.99952 41.5426 10.0883 42.0391 12.1183 41.2707Z" fill="#E6E6E6"/>
<path d="M37.6775 38.0647C39.7075 37.2963 40.91 35.554 40.3633 34.1731C39.8167 32.7923 37.7279 32.2958 35.6979 33.0642C33.6679 33.8326 32.4654 35.5748 33.0121 36.9557C33.5587 38.3366 35.6475 38.8331 37.6775 38.0647Z" fill="#3F3D56"/>
<path d="M9.90158 62.5935C11.9316 61.8251 13.1341 60.0828 12.5874 58.7019C12.0408 57.3211 9.95198 56.8246 7.92199 57.593C5.89201 58.3614 4.68951 60.1037 5.23616 61.4845C5.78281 62.8654 7.87159 63.3619 9.90158 62.5935Z" fill="#FF6584"/>
<path d="M2.50747 71.999C3.43876 71.7835 3.93686 70.5476 3.61999 69.2385C3.30313 67.9295 2.29128 67.043 1.35999 67.2585C0.428696 67.4741 -0.0693912 68.71 0.247476 70.019C0.564342 71.3281 1.57617 72.2146 2.50747 71.999Z" fill="#E6E6E6"/>
<path d="M2.3554 87.923C3.28669 87.7074 3.78478 86.4715 3.46791 85.1625C3.15104 83.8534 2.13921 82.9669 1.20792 83.1825C0.276627 83.398 -0.22146 84.634 0.0954065 85.943C0.412273 87.252 1.4241 88.1385 2.3554 87.923Z" fill="#3F3D56"/>
<path d="M24.788 54.9408C25.7193 54.7252 26.2174 53.4893 25.9005 52.1803C25.5837 50.8712 24.5718 49.9848 23.6405 50.2003C22.7092 50.4158 22.2112 51.6518 22.528 52.9608C22.8449 54.2699 23.8567 55.1563 24.788 54.9408Z" fill="#E6E6E6"/>
<path d="M11.3266 51.7443C12.2579 51.5287 12.756 50.2928 12.4391 48.9837C12.1223 47.6747 11.1104 46.7882 10.1791 47.0038C9.24785 47.2193 8.74976 48.4552 9.06663 49.7643C9.3835 51.0733 10.3953 51.9598 11.3266 51.7443Z" fill="#FF6584"/>
<path d="M25.5947 37.081C26.526 36.8655 27.0241 35.6296 26.7072 34.3205C26.3904 33.0115 25.3785 32.125 24.4472 32.3406C23.5159 32.5561 23.0179 33.792 23.3347 35.1011C23.6516 36.4101 24.6634 37.2966 25.5947 37.081Z" fill="#3F3D56"/>
<path d="M32.2305 147.294C33.212 146.166 32.664 144.134 31.0064 142.754C29.3488 141.375 27.2094 141.17 26.2279 142.298C25.2463 143.425 25.7944 145.458 27.452 146.837C29.1096 148.217 31.249 148.421 32.2305 147.294Z" fill="#E6E6E6"/>
<path d="M17.1774 126.843C18.1589 125.715 17.6109 123.683 15.9533 122.303C14.2957 120.923 12.1563 120.719 11.1747 121.847C10.1932 122.974 10.7413 125.007 12.3988 126.386C14.0564 127.766 16.1958 127.97 17.1774 126.843Z" fill="#3F3D56"/>
<path d="M52.4617 139.047C53.4432 137.919 52.8952 135.887 51.2376 134.507C49.58 133.128 47.4406 132.923 46.459 134.051C45.4775 135.178 46.0256 137.211 47.6831 138.591C49.3407 139.97 51.4802 140.175 52.4617 139.047Z" fill="#FF6584"/>
<path d="M62.5122 139.273C63.5386 138.377 63.854 137.085 63.2167 136.387C62.5795 135.689 61.2308 135.849 60.2045 136.745C59.1781 137.64 58.8627 138.933 59.4999 139.631C60.1372 140.329 61.4859 140.169 62.5122 139.273Z" fill="#E6E6E6"/>
<path d="M76.9051 131.822C77.9315 130.926 78.2469 129.634 77.6097 128.936C76.9724 128.237 75.6238 128.398 74.5974 129.293C73.571 130.189 73.2556 131.481 73.8929 132.179C74.5302 132.878 75.8788 132.717 76.9051 131.822Z" fill="#3F3D56"/>
<path d="M36.5628 128.237C37.5892 127.341 37.9046 126.049 37.2673 125.351C36.6301 124.653 35.2814 124.813 34.2551 125.709C33.2287 126.604 32.9133 127.897 33.5505 128.595C34.1878 129.293 35.5365 129.133 36.5628 128.237Z" fill="#E6E6E6"/>
<path d="M40.0978 141.334C41.1242 140.438 41.4396 139.146 40.8023 138.448C40.1651 137.75 38.8164 137.91 37.7901 138.806C36.7637 139.701 36.4483 140.993 37.0855 141.692C37.7228 142.39 39.0715 142.23 40.0978 141.334Z" fill="#FF6584"/>
<path d="M20.1173 136.047C21.1437 135.151 21.4591 133.859 20.8218 133.161C20.1846 132.463 18.8359 132.623 17.8096 133.519C16.7832 134.415 16.4678 135.707 17.105 136.405C17.7423 137.103 19.091 136.943 20.1173 136.047Z" fill="#3F3D56"/>
<path d="M133.358 16.1281C134.717 15.4747 135.039 13.3966 134.079 11.4865C133.118 9.57652 131.238 8.55789 129.879 9.21135C128.52 9.86481 128.197 11.9429 129.158 13.8529C130.119 15.7629 131.999 16.7816 133.358 16.1281Z" fill="#E6E6E6"/>
<path d="M138.863 40.7436C140.222 40.0902 140.545 38.012 139.584 36.102C138.624 34.192 136.743 33.1734 135.384 33.8268C134.026 34.4803 133.703 36.5584 134.663 38.4684C135.624 40.3784 137.504 41.3971 138.863 40.7436Z" fill="#3F3D56"/>
<path d="M111.441 15.8372C112.8 15.1838 113.123 13.1057 112.162 11.1957C111.201 9.28563 109.321 8.26698 107.962 8.92044C106.603 9.5739 106.281 11.652 107.241 13.562C108.202 15.4721 110.082 16.4907 111.441 15.8372Z" fill="#FF6584"/>
<path d="M99.9213 8.02556C101.227 7.60221 102.042 6.53896 101.74 5.65071C101.439 4.76245 100.136 4.38556 98.8306 4.8089C97.5248 5.23225 96.7104 6.29552 97.0116 7.18377C97.3127 8.07202 98.6155 8.4489 99.9213 8.02556Z" fill="#E6E6E6"/>
<path d="M83.6855 9.27275C84.9913 8.84941 85.8058 7.78615 85.5046 6.89789C85.2034 6.00964 83.9007 5.63276 82.5948 6.0561C81.289 6.47945 80.4746 7.5427 80.7758 8.43096C81.077 9.31921 82.3797 9.6961 83.6855 9.27275Z" fill="#3F3D56"/>
<path d="M119.251 28.2337C120.557 27.8103 121.372 26.7471 121.071 25.8588C120.769 24.9706 119.467 24.5937 118.161 25.017C116.855 25.4404 116.041 26.5036 116.342 27.3919C116.643 28.2802 117.946 28.657 119.251 28.2337Z" fill="#E6E6E6"/>
<path d="M121.328 14.8413C122.634 14.418 123.449 13.3547 123.147 12.4665C122.846 11.5782 121.543 11.2014 120.238 11.6247C118.932 12.048 118.117 13.1113 118.419 13.9996C118.72 14.8878 120.023 15.2647 121.328 14.8413Z" fill="#FF6584"/>
<path d="M137.517 27.4546C138.822 27.0313 139.637 25.968 139.336 25.0798C139.034 24.1915 137.732 23.8146 136.426 24.238C135.12 24.6613 134.306 25.7246 134.607 26.6128C134.908 27.5011 136.211 27.878 137.517 27.4546Z" fill="#3F3D56"/>
<path d="M142.529 104.089L159.75 103.221L167.748 115.58C167.748 115.58 182.797 118.04 181.754 135.38C180.711 152.721 163.444 167.937 163.444 167.937L164.182 176.967L162.9 180.549L163.064 182.56L164.813 184.69L164.993 186.893L163.444 190.378L165.551 193.715L121.251 189.518L119.631 183.748L121.994 180.649L120.674 176.607L122.659 172.72L123.693 160.372C123.693 160.372 112.373 143.742 125.368 131.216L130.584 122.546L136.42 115.584L142.529 104.089Z" fill="#BC7AF9"/>
<path d="M151.09 100.599C161.168 100.599 169.337 92.6108 169.337 82.7566C169.337 72.9025 161.168 64.9142 151.09 64.9142C141.012 64.9142 132.843 72.9025 132.843 82.7566C132.843 92.6108 141.012 100.599 151.09 100.599Z" fill="#FFB6B6"/>
<path d="M148.647 81.6752C147.075 81.6752 145.503 81.6319 143.932 81.5452L143.652 81.5298L143.689 81.2573C143.92 79.5542 143.79 77.8228 143.306 76.1711C142.485 78.0518 141.263 79.7396 139.721 81.1218L139.634 81.1998L139.517 81.1873C135.251 80.7311 131.024 79.9773 126.868 78.9316L126.709 78.8918L126.677 78.7344C126.367 77.244 126.206 75.7275 126.198 74.2065C126.198 69.4553 127.959 65.4564 131.158 62.9464C134.64 60.2143 139.631 59.374 145.217 60.5791H163.079C165.042 60.5813 166.925 61.345 168.313 62.7027C169.702 64.0604 170.483 65.9013 170.485 67.8214V78.8816L170.29 78.9314C163.225 80.7469 155.952 81.669 148.647 81.6752Z" fill="#2F2E41"/>
<path d="M24.1389 61.8286C23.3393 62.1145 22.6884 62.6989 22.3289 63.4536C21.9695 64.2082 21.9308 65.0715 22.2214 65.854L41.4903 117.554C41.7827 118.335 42.3804 118.972 43.1521 119.323C43.9239 119.675 44.8067 119.713 45.607 119.429L120.393 92.7778C121.192 92.4919 121.843 91.9075 122.203 91.1528C122.562 90.3981 122.601 89.5349 122.31 88.7524L103.041 37.0528C102.749 36.2709 102.151 35.6344 101.379 35.2829C100.608 34.9314 99.7249 34.8935 98.9246 35.1777L24.1389 61.8286Z" fill="#CCCCCC"/>
<path d="M92.559 99.8464L46.7824 116.16C45.9212 116.465 44.971 116.425 44.1403 116.046C43.3097 115.668 42.6664 114.983 42.3517 114.141L24.875 67.2503C24.5622 66.4081 24.6038 65.479 24.9907 64.6668C25.3776 63.8546 26.0782 63.2256 26.9388 62.9178L97.4985 37.7729C98.3598 37.4671 99.3101 37.5078 100.141 37.8861C100.971 38.2644 101.615 38.9495 101.929 39.7911L110.374 62.4483C113.074 69.7181 112.715 77.7383 109.375 84.7494C106.035 91.7605 99.9875 97.1899 92.559 99.8464Z" fill="white"/>
<path d="M59.6203 65.9717L48.7423 69.8482C48.6059 69.8968 48.461 69.9187 48.3159 69.9125C48.1709 69.9064 48.0285 69.8724 47.8968 69.8124C47.7652 69.7525 47.647 69.6678 47.5488 69.5632C47.4507 69.4585 47.3746 69.336 47.3249 69.2026C47.2752 69.0692 47.2528 68.9276 47.2591 68.7857C47.2654 68.6439 47.3001 68.5046 47.3615 68.3759C47.4228 68.2472 47.5094 68.1316 47.6164 68.0356C47.7234 67.9397 47.8487 67.8653 47.9851 67.8167L58.8632 63.9401C59.1387 63.8419 59.4428 63.8548 59.7086 63.9759C59.9744 64.0969 60.1802 64.3163 60.2806 64.5857C60.381 64.8551 60.3678 65.1525 60.244 65.4124C60.1202 65.6723 59.8958 65.8735 59.6203 65.9717Z" fill="#BC7AF9"/>
<path d="M85.5538 61.4363L50.2907 74.0027C50.1542 74.0515 50.0093 74.0736 49.8641 74.0676C49.7189 74.0616 49.5763 74.0276 49.4446 73.9677C49.3128 73.9078 49.1944 73.8231 49.0962 73.7184C48.9979 73.6137 48.9218 73.4911 48.872 73.3576C48.8223 73.2241 48.7999 73.0823 48.8062 72.9404C48.8125 72.7984 48.8474 72.6591 48.9089 72.5303C48.9703 72.4015 49.0571 72.2859 49.1643 72.1899C49.2715 72.094 49.3969 72.0197 49.5335 71.9712L84.7966 59.4047C84.933 59.3561 85.0779 59.3342 85.223 59.3404C85.368 59.3465 85.5104 59.3805 85.642 59.4405C85.7736 59.5004 85.8919 59.5851 85.99 59.6898C86.0882 59.7944 86.1643 59.9169 86.214 60.0503C86.2637 60.1837 86.2861 60.3254 86.2798 60.4672C86.2735 60.609 86.2388 60.7483 86.1775 60.877C86.1161 61.0057 86.0295 61.1213 85.9225 61.2173C85.8155 61.3132 85.6902 61.3877 85.5538 61.4363Z" fill="#BC7AF9"/>
<path d="M87.3312 66.2051L52.0681 78.7716C51.9317 78.8202 51.7868 78.842 51.6417 78.8359C51.4967 78.8298 51.3543 78.7958 51.2227 78.7358C51.091 78.6759 50.9728 78.5912 50.8747 78.4865C50.7765 78.3819 50.7004 78.2594 50.6507 78.126C50.601 77.9926 50.5786 77.8509 50.5849 77.7091C50.5912 77.5672 50.626 77.428 50.6873 77.2993C50.7486 77.1706 50.8352 77.055 50.9422 76.959C51.0492 76.863 51.1745 76.7886 51.3109 76.74L86.574 64.1735C86.8494 64.0758 87.1533 64.0889 87.4188 64.21C87.6843 64.3312 87.8898 64.5504 87.9902 64.8196C88.0905 65.0888 88.0774 65.3859 87.9539 65.6457C87.8303 65.9055 87.6064 66.1067 87.3312 66.2051Z" fill="#BC7AF9"/>
<path d="M89.1086 70.974L53.8455 83.5405C53.709 83.5893 53.5641 83.6113 53.4189 83.6053C53.2737 83.5993 53.1312 83.5654 52.9994 83.5054C52.8676 83.4455 52.7492 83.3608 52.651 83.2561C52.5528 83.1514 52.4766 83.0288 52.4268 82.8953C52.3771 82.7618 52.3547 82.6201 52.361 82.4781C52.3674 82.3361 52.4022 82.1968 52.4637 82.068C52.5251 81.9393 52.6119 81.8236 52.7191 81.7277C52.8263 81.6317 52.9517 81.5574 53.0883 81.5089L88.3514 68.9424C88.4878 68.8938 88.6327 68.872 88.7778 68.8781C88.9228 68.8842 89.0652 68.9182 89.1968 68.9782C89.3285 69.0381 89.4467 69.1228 89.5449 69.2275C89.643 69.3321 89.7191 69.4546 89.7688 69.588C89.8185 69.7214 89.8409 69.8631 89.8346 70.0049C89.8283 70.1468 89.7936 70.286 89.7323 70.4147C89.671 70.5434 89.5843 70.659 89.4773 70.755C89.3703 70.851 89.245 70.9254 89.1086 70.974Z" fill="#BC7AF9"/>
<path d="M90.886 75.7429L55.6229 88.3094C55.3473 88.4075 55.0432 88.3947 54.7774 88.2736C54.5116 88.1525 54.3059 87.9332 54.2054 87.6638C54.105 87.3944 54.1182 87.097 54.242 86.8371C54.3658 86.5772 54.5902 86.376 54.8657 86.2778L90.1288 73.7113C90.2652 73.6627 90.4101 73.6409 90.5551 73.647C90.7002 73.6531 90.8426 73.6872 90.9742 73.7471C91.1058 73.807 91.2241 73.8918 91.3222 73.9964C91.4204 74.101 91.4965 74.2236 91.5462 74.3569C91.5959 74.4903 91.6183 74.632 91.612 74.7738C91.6057 74.9157 91.5709 75.0549 91.5096 75.1836C91.4483 75.3123 91.3617 75.428 91.2547 75.5239C91.1477 75.6199 91.0224 75.6943 90.886 75.7429Z" fill="#BC7AF9"/>
<path d="M202.776 88.987L183.469 134.164C182.645 136.076 181.086 137.594 179.127 138.391C177.169 139.189 174.968 139.201 173.001 138.426C171.983 138.025 171.059 137.425 170.286 136.664C169.512 135.902 168.906 134.995 168.503 133.996C168.1 132.998 167.909 131.93 167.942 130.857C167.975 129.785 168.231 128.73 168.695 127.757L190.221 81.4306L202.088 52.7416C201.063 51.7415 200.377 50.457 200.124 49.0627C199.871 47.6683 200.063 46.2316 200.675 44.9477C201.286 43.6639 202.286 42.5952 203.541 41.8868C204.795 41.1784 206.241 40.8647 207.684 40.9882C209.127 41.1118 210.496 41.6666 211.605 42.5774C212.714 43.4882 213.509 44.7107 213.883 46.0789C214.256 47.447 214.19 48.8946 213.693 50.2247C213.197 51.5549 212.293 52.7033 211.105 53.5138L202.776 88.987Z" fill="#FFB6B6"/>
</g>
<defs>
<clipPath id="clip0_44_104">
<rect width="246" height="273" fill="white"/>
</clipPath>
</defs>
</svg>
